<svg id="Layer_1" data-name="Layer 1" xmlns="http://www.w3.org/2000/svg" viewBox="0 0 388.7 70.9"><defs><style>.cls-1{fill:#1a1a1a;}.cls-2{fill:#0b57a3;}.cls-3,.cls-5{fill:#0e93ce;}.cls-4{fill:#85abd2;}.cls-4,.cls-5{fill-rule:evenodd;}</style></defs><title>As-store</title><path class="cls-1" d="M162.9,236.7h-9.1l-1.6,4.1H146l9.4-21.3h6l9.4,21.3h-6.2Zm-1.8-4.5-2.7-6.8-2.8,6.8Z" transform="translate(-63.8 -195.2)"/><path class="cls-1" d="M175,240.6a11.8,11.8,0,0,1-3.9-1.7l1.9-4.5a12.3,12.3,0,0,0,7.1,2.1c2.3,0,3.5-.5,3.5-1.7a1.6,1.6,0,0,0-1-1.4,29.6,29.6,0,0,0-3.2-.9,22.3,22.3,0,0,1-4-1.1,6.7,6.7,0,0,1-2.8-1.9,5.1,5.1,0,0,1-1.2-3.5,6.6,6.6,0,0,1,1.1-3.6,8.3,8.3,0,0,1,3.2-2.5,13.1,13.1,0,0,1,5.2-.9,18.4,18.4,0,0,1,4.1.5,11.8,11.8,0,0,1,3.6,1.4l-1.8,4.5a12.7,12.7,0,0,0-5.9-1.7,4.9,4.9,0,0,0-2.7.6,1.6,1.6,0,0,0-.8,1.4c0,.5.3.9,1,1.2a15.1,15.1,0,0,0,3.1.9,38.3,38.3,0,0,1,4.1,1.1,7.4,7.4,0,0,1,2.7,1.9,5.1,5.1,0,0,1,1.2,3.5,6,6,0,0,1-1,3.5,7.3,7.3,0,0,1-3.2,2.5,13.8,13.8,0,0,1-5.2.9A21.6,21.6,0,0,1,175,240.6Z" transform="translate(-63.8 -195.2)"/><path class="cls-1" d="M192,229.9h8.9v4.4H192Z" transform="translate(-63.8 -195.2)"/><path class="cls-1" d="M206.6,240.6a13.4,13.4,0,0,1-4-1.7l2-4.5a12.3,12.3,0,0,0,7.1,2.1c2.3,0,3.5-.5,3.5-1.7a1.6,1.6,0,0,0-1-1.4l-3.2-.9a22.3,22.3,0,0,1-4-1.1,6.1,6.1,0,0,1-2.8-1.9A5.1,5.1,0,0,1,203,226a6.6,6.6,0,0,1,1.1-3.6,8.3,8.3,0,0,1,3.2-2.5,13.1,13.1,0,0,1,5.2-.9,18.4,18.4,0,0,1,4.1.5,11.8,11.8,0,0,1,3.6,1.4l-1.8,4.5a12.7,12.7,0,0,0-6-1.7,4.5,4.5,0,0,0-2.6.6,1.6,1.6,0,0,0-.8,1.4c0,.5.3.9,1,1.2a15.1,15.1,0,0,0,3.1.9c1.6.4,3,.7,4.1,1.1a7.4,7.4,0,0,1,2.7,1.9,5.1,5.1,0,0,1,1.2,3.5,5.4,5.4,0,0,1-1.1,3.5,6.3,6.3,0,0,1-3.2,2.5,12.9,12.9,0,0,1-5.1.9A21,21,0,0,1,206.6,240.6Z" transform="translate(-63.8 -195.2)"/><path class="cls-1" d="M228.1,224.2h-6.5v-4.7h19.1v4.7h-6.5v16.6h-6.1Z" transform="translate(-63.8 -195.2)"/><path class="cls-1" d="M247.3,239.8a10.1,10.1,0,0,1-4.2-4,10.5,10.5,0,0,1-1.5-5.7,11,11,0,0,1,1.5-5.7,9.9,9.9,0,0,1,4.2-3.9,12.5,12.5,0,0,1,6.1-1.5,12.3,12.3,0,0,1,6.1,1.5,10.8,10.8,0,0,1,4.3,3.9,11,11,0,0,1,1.5,5.7,10.5,10.5,0,0,1-1.5,5.7,11,11,0,0,1-4.3,4,12.2,12.2,0,0,1-6.1,1.4A12.5,12.5,0,0,1,247.3,239.8Zm9.1-4.3a5.4,5.4,0,0,0,2-2.2,6.6,6.6,0,0,0,.8-3.2,6.9,6.9,0,0,0-.8-3.2,5.8,5.8,0,0,0-2-2.1,6.1,6.1,0,0,0-3-.8,6,6,0,0,0-2.9.8,5.3,5.3,0,0,0-2.1,2.1,6.8,6.8,0,0,0-.7,3.2,6.6,6.6,0,0,0,.7,3.2,5,5,0,0,0,2.1,2.2,5.9,5.9,0,0,0,2.9.7A6,6,0,0,0,256.4,235.5Z" transform="translate(-63.8 -195.2)"/><path class="cls-1" d="M277.8,235.1h-3.3v5.7h-6V219.5h9.8a12.8,12.8,0,0,1,5,.9,8.3,8.3,0,0,1,3.3,2.8,7.3,7.3,0,0,1,1.1,4.2,7.4,7.4,0,0,1-1,4,7.4,7.4,0,0,1-3.1,2.7l4.6,6.7h-6.5Zm2.9-10.1a4.4,4.4,0,0,0-2.8-.8h-3.4v6.3h3.4a4.4,4.4,0,0,0,2.8-.8,3,3,0,0,0,.9-2.3A3.2,3.2,0,0,0,280.7,225Z" transform="translate(-63.8 -195.2)"/><path class="cls-1" d="M308.2,236.2v4.6H291.1V219.5h16.7v4.6H297.1v3.6h9.4v4.5h-9.4v4Z" transform="translate(-63.8 -195.2)"/><path class="cls-2" d="M161,254.3l-3,9.2h-2.3l-2-6.3-2.1,6.3h-2.3l-3-9.2h2.2l2.1,6.4,2.2-6.4h1.9l2.1,6.5,2.2-6.5Z" transform="translate(-63.8 -195.2)"/><path class="cls-2" d="M171.3,257.1a2.8,2.8,0,0,1,.8,2.3v4.1h-2v-3.8a1.6,1.6,0,0,0-.4-1.2,1.2,1.2,0,0,0-1.1-.4,1.6,1.6,0,0,0-1.2.4,2.3,2.3,0,0,0-.5,1.5v3.5h-2v-9.8h2v3.4a3.3,3.3,0,0,1,1-.6l1.3-.2A2.5,2.5,0,0,1,171.3,257.1Z" transform="translate(-63.8 -195.2)"/><path class="cls-2" d="M183.6,260.5h-5.4a2.1,2.1,0,0,0,.7,1.1,2.9,2.9,0,0,0,1.4.3h.9a1.6,1.6,0,0,0,.8-.6l1.1,1.2a3.4,3.4,0,0,1-2.9,1.2,4.6,4.6,0,0,1-2.1-.5,2.9,2.9,0,0,1-1.4-1.3,3,3,0,0,1-.5-1.9,3.6,3.6,0,0,1,1.8-3.1,3.2,3.2,0,0,1,1.9-.5,3.8,3.8,0,0,1,1.9.4,4.4,4.4,0,0,1,1.4,1.3,4.2,4.2,0,0,1,.4,2Zm-4.8-2.3a2.4,2.4,0,0,0-.6,1.1h3.5a2.4,2.4,0,0,0-.6-1.1,2.1,2.1,0,0,0-1.1-.4A2.1,2.1,0,0,0,178.8,258.2Z" transform="translate(-63.8 -195.2)"/><path class="cls-2" d="M190.6,256.5l1.4-.2v1.9h-.4a2,2,0,0,0-1.4.4,2.5,2.5,0,0,0-.5,1.5v3.4h-2.1v-7.1h2v.9A2.7,2.7,0,0,1,190.6,256.5Z" transform="translate(-63.8 -195.2)"/><path class="cls-2" d="M202.7,260.5h-5.3a2,2,0,0,0,.6,1.1,3.2,3.2,0,0,0,1.4.3h1a2.1,2.1,0,0,0,.8-.6l1.1,1.2a3.8,3.8,0,0,1-3,1.2,4.6,4.6,0,0,1-2.1-.5,2.9,2.9,0,0,1-1.4-1.3,3.8,3.8,0,0,1-.5-1.9,3.5,3.5,0,0,1,.5-1.8,3.3,3.3,0,0,1,1.3-1.3,3.5,3.5,0,0,1,2-.5,3.3,3.3,0,0,1,3.2,1.7,4.2,4.2,0,0,1,.5,2A1.2,1.2,0,0,0,202.7,260.5Zm-4.8-2.3a2.4,2.4,0,0,0-.6,1.1h3.5a1.4,1.4,0,0,0-.6-1.1,2.1,2.1,0,0,0-1.1-.4A2.1,2.1,0,0,0,197.9,258.2Z" transform="translate(-63.8 -195.2)"/><path class="cls-2" d="M213.8,263.4l-1.4-.6.7-1.5a3.3,3.3,0,0,0,1.2.5,2.7,2.7,0,0,0,1.3.2c.8,0,1.3-.2,1.3-.6a.5.5,0,0,0-.4-.5l-1.1-.2-1.4-.3a2.1,2.1,0,0,1-1-.6,2,2,0,0,1,0-2.4,2.3,2.3,0,0,1,1.1-.8,4.8,4.8,0,0,1,1.8-.3,3.9,3.9,0,0,1,1.5.2,3.4,3.4,0,0,1,1.2.4l-.7,1.5a3.6,3.6,0,0,0-2-.6l-1,.2a.6.6,0,0,0,0,1l1.2.2,1.4.3a1.8,1.8,0,0,1,.9.6,2,2,0,0,1,0,2.4,2.4,2.4,0,0,1-1.1.8,4.8,4.8,0,0,1-1.8.3Z" transform="translate(-63.8 -195.2)"/><path class="cls-2" d="M227.3,263.1l-.7.4h-1a2.4,2.4,0,0,1-1.9-.7,2.2,2.2,0,0,1-.7-1.9v-2.9h-1.1v-1.6H223v-1.7h2v1.7h1.8v1.6H225V261a.9.9,0,0,0,.3.7c.1.2.3.2.6.2a1.3,1.3,0,0,0,.9-.2Z" transform="translate(-63.8 -195.2)"/><path class="cls-2" d="M238,256.4l-3.2,7.5a3.2,3.2,0,0,1-1.2,1.7,2.6,2.6,0,0,1-1.7.5h-1.1l-.9-.5.7-1.5.6.4h.6l.7-.2.5-.7h0l-3.1-7.1H232l2,4.8,2-4.8Z" transform="translate(-63.8 -195.2)"/><path class="cls-2" d="M241.5,253.7h2v9.8h-2Z" transform="translate(-63.8 -195.2)"/><path class="cls-2" d="M255,260.5h-5.4a1.6,1.6,0,0,0,.7,1.1,2.8,2.8,0,0,0,1.3.3h1a1.6,1.6,0,0,0,.8-.6l1.1,1.2a3.6,3.6,0,0,1-2.9,1.2,4.6,4.6,0,0,1-2.1-.5,3.2,3.2,0,0,1-1.5-1.3,3.8,3.8,0,0,1-.5-1.9,3.5,3.5,0,0,1,1.9-3.1,3.2,3.2,0,0,1,1.9-.5,4.1,4.1,0,0,1,1.9.4,3.3,3.3,0,0,1,1.3,1.3,4.2,4.2,0,0,1,.5,2Zm-4.8-2.3a1.7,1.7,0,0,0-.6,1.1h3.5a2.4,2.4,0,0,0-.6-1.1,2.1,2.1,0,0,0-1.2-.4A2.1,2.1,0,0,0,250.2,258.2Z" transform="translate(-63.8 -195.2)"/><path class="cls-2" d="M259.7,263.4l-1.4-.6.7-1.5,1.1.5a3.4,3.4,0,0,0,1.4.2c.8,0,1.3-.2,1.3-.6a.5.5,0,0,0-.4-.5l-1.1-.2-1.4-.3a2.1,2.1,0,0,1-1-.6,2,2,0,0,1,0-2.4,1.9,1.9,0,0,1,1.1-.8,4.8,4.8,0,0,1,1.8-.3,3.9,3.9,0,0,1,1.5.2l1.2.4-.7,1.5a3.6,3.6,0,0,0-2-.6l-1,.2a.6.6,0,0,0,0,1l1.1.2,1.5.3a1.8,1.8,0,0,1,.9.6,2,2,0,0,1,0,2.4,2.4,2.4,0,0,1-1.1.8,4.8,4.8,0,0,1-1.8.3Z" transform="translate(-63.8 -195.2)"/><path class="cls-2" d="M286.2,257.1a3.2,3.2,0,0,1,.8,2.3v4.1h-2.1v-3.8a1.6,1.6,0,0,0-.4-1.2,1,1,0,0,0-.9-.4,1.6,1.6,0,0,0-1.2.4,2,2,0,0,0-.4,1.4v3.6h-2.1v-3.8c0-1.1-.4-1.6-1.3-1.6a1.2,1.2,0,0,0-1.1.4,2,2,0,0,0-.5,1.4v3.6h-2v-7.1h1.9v.8l1-.7,1.3-.2a2.8,2.8,0,0,1,1.3.3,2.7,2.7,0,0,1,1,.8l1.1-.8a3.3,3.3,0,0,1,1.5-.3A2.8,2.8,0,0,1,286.2,257.1Z" transform="translate(-63.8 -195.2)"/><path class="cls-2" d="M298.4,260.5H293a2.1,2.1,0,0,0,.7,1.1,2.9,2.9,0,0,0,1.4.3h1a1.9,1.9,0,0,0,.7-.6l1.1,1.2a3.4,3.4,0,0,1-2.9,1.2,4.6,4.6,0,0,1-2.1-.5,2.9,2.9,0,0,1-1.4-1.3,3,3,0,0,1-.5-1.9,2.7,2.7,0,0,1,.5-1.8,3.3,3.3,0,0,1,1.3-1.3,3.3,3.3,0,0,1,2-.5,3.7,3.7,0,0,1,1.8.4A4.4,4.4,0,0,1,298,258a4.2,4.2,0,0,1,.4,2Zm-4.8-2.3a2.4,2.4,0,0,0-.6,1.1h3.5a2.4,2.4,0,0,0-.6-1.1,2.1,2.1,0,0,0-1.1-.4A2.1,2.1,0,0,0,293.6,258.2Z" transform="translate(-63.8 -195.2)"/><path class="cls-2" d="M309.3,260.5H304a1.6,1.6,0,0,0,.7,1.1,2.5,2.5,0,0,0,1.3.3h1a2.1,2.1,0,0,0,.8-.6l1.1,1.2a3.7,3.7,0,0,1-2.9,1.2,5.4,5.4,0,0,1-2.2-.5,2.9,2.9,0,0,1-1.4-1.3,3.8,3.8,0,0,1-.5-1.9,3.5,3.5,0,0,1,.5-1.8,2.9,2.9,0,0,1,1.4-1.3,3,3,0,0,1,1.9-.5,3.3,3.3,0,0,1,3.2,1.7,4.2,4.2,0,0,1,.5,2A1.8,1.8,0,0,1,309.3,260.5Zm-4.8-2.3a1.6,1.6,0,0,0-.5,1.1h3.4a1.6,1.6,0,0,0-.5-1.1,2,2,0,0,0-2.4,0Z" transform="translate(-63.8 -195.2)"/><path class="cls-2" d="M317.9,263.1l-.7.4h-.9a2.4,2.4,0,0,1-2.7-2.6v-2.9h-1.1v-1.6h1.1v-1.7h2.1v1.7h1.7v1.6h-1.7V261a1.4,1.4,0,0,0,.2.7.8.8,0,0,0,.7.2,1.1,1.1,0,0,0,.8-.2Z" transform="translate(-63.8 -195.2)"/><path class="cls-2" d="M322.4,263.4l-1.3-.6.6-1.5a4.3,4.3,0,0,0,1.2.5,3,3,0,0,0,1.3.2c.9,0,1.3-.2,1.3-.6a.5.5,0,0,0-.4-.5l-1-.2-1.5-.3a2.1,2.1,0,0,1-1-.6,2,2,0,0,1,0-2.4,2.8,2.8,0,0,1,1.1-.8,4.8,4.8,0,0,1,1.8-.3,3.9,3.9,0,0,1,1.5.2l1.2.4-.7,1.5a3.6,3.6,0,0,0-2-.6l-1,.2a.6.6,0,0,0,0,1l1.2.2,1.4.3a2.1,2.1,0,0,1,1,.6,2,2,0,0,1,0,2.4,3.6,3.6,0,0,1-1.2.8,4.8,4.8,0,0,1-1.8.3Z" transform="translate(-63.8 -195.2)"/><path class="cls-2" d="M343.1,257.1a2.9,2.9,0,0,1,.9,2.3v4.1h-1.9v-.9a2.5,2.5,0,0,1-2.2,1,3.2,3.2,0,0,1-1.4-.3,1.8,1.8,0,0,1-.9-.8,2,2,0,0,1-.3-1.1,1.8,1.8,0,0,1,.7-1.5,3.7,3.7,0,0,1,2.3-.6h1.6a1.2,1.2,0,0,0-.4-1,1.5,1.5,0,0,0-1.2-.4l-1.1.2a1.9,1.9,0,0,0-.9.5l-.8-1.5,1.4-.6,1.7-.2A3.3,3.3,0,0,1,343.1,257.1Zm-1.7,4.9a1.6,1.6,0,0,0,.5-.8v-.7h-1.4c-.8,0-1.2.3-1.2.8a.9.9,0,0,0,.3.7l.8.2Z" transform="translate(-63.8 -195.2)"/><path class="cls-2" d="M350.7,256.5h1.8v1.6h-1.7v5.4h-2.1v-5.4h-1.1v-1.6h1.1v-.3a2.9,2.9,0,0,1,.7-1.9,2.8,2.8,0,0,1,2.1-.7h.8l.7.3-.5,1.5a1.1,1.1,0,0,0-.8-.3.9.9,0,0,0-1,1Z" transform="translate(-63.8 -195.2)"/><path class="cls-2" d="M358.5,256.5h1.8v1.6h-1.8v5.4h-2v-5.4h-1.1v-1.6h1.1v-.3a2.5,2.5,0,0,1,.7-1.9,2.4,2.4,0,0,1,2-.7h.9l.7.3-.6,1.5a1.1,1.1,0,0,0-.8-.3c-.6,0-.9.4-.9,1Z" transform="translate(-63.8 -195.2)"/><path class="cls-2" d="M365.2,263.1a2.9,2.9,0,0,1-1.4-1.3,3.8,3.8,0,0,1-.5-1.9,4.1,4.1,0,0,1,.5-1.9,3.3,3.3,0,0,1,1.4-1.2,3.5,3.5,0,0,1,2-.5,4.2,4.2,0,0,1,3.4,1.7,4.1,4.1,0,0,1,.5,1.9,3.8,3.8,0,0,1-.5,1.9,2.9,2.9,0,0,1-1.4,1.3,4.2,4.2,0,0,1-2,.5A4.6,4.6,0,0,1,365.2,263.1Zm3.3-1.7a2.5,2.5,0,0,0,.5-1.5,2.2,2.2,0,0,0-.5-1.4,1.9,1.9,0,0,0-2.6,0,2.2,2.2,0,0,0-.5,1.4,2.5,2.5,0,0,0,.5,1.5,1.9,1.9,0,0,0,2.6,0Z" transform="translate(-63.8 -195.2)"/><path class="cls-2" d="M378,256.5l1.5-.2v1.9H379a2.1,2.1,0,0,0-1.4.4,2.5,2.5,0,0,0-.5,1.5v3.4h-2v-7.1H377v.9A3.9,3.9,0,0,1,378,256.5Z" transform="translate(-63.8 -195.2)"/><path class="cls-2" d="M390.5,253.7v9.8h-2v-.8a2.7,2.7,0,0,1-2.2.9,3.9,3.9,0,0,1-3.1-1.7,4.2,4.2,0,0,1-.4-2,3.3,3.3,0,0,1,1.7-3.2,3.7,3.7,0,0,1,1.8-.4,2.9,2.9,0,0,1,2.1.8v-3.4Zm-2.5,7.7a2.5,2.5,0,0,0,.5-1.5,2.2,2.2,0,0,0-.5-1.4,1.7,1.7,0,0,0-1.3-.5,1.4,1.4,0,0,0-1.3.5,1.7,1.7,0,0,0-.5,1.4,2,2,0,0,0,.5,1.5,1.7,1.7,0,0,0,1.3.5A2.1,2.1,0,0,0,388,261.4Z" transform="translate(-63.8 -195.2)"/><path class="cls-2" d="M400.4,257.1a2.9,2.9,0,0,1,.9,2.3v4.1h-1.9v-.9a2.5,2.5,0,0,1-2.2,1,3.2,3.2,0,0,1-1.4-.3,1.8,1.8,0,0,1-.9-.8,2,2,0,0,1-.3-1.1,1.8,1.8,0,0,1,.7-1.5,3.7,3.7,0,0,1,2.3-.6h1.6a1.2,1.2,0,0,0-.4-1,1.6,1.6,0,0,0-1.2-.4l-1.1.2a1.9,1.9,0,0,0-.9.5l-.8-1.5,1.4-.6,1.7-.2A3.3,3.3,0,0,1,400.4,257.1Zm-1.7,4.9a1.6,1.6,0,0,0,.5-.8v-.7h-1.4c-.8,0-1.2.3-1.2.8a.9.9,0,0,0,.3.7l.8.2Z" transform="translate(-63.8 -195.2)"/><path class="cls-2" d="M411.8,256.7A3.7,3.7,0,0,1,413,258a4.1,4.1,0,0,1,.5,1.9,3.6,3.6,0,0,1-.5,1.9,3,3,0,0,1-1.2,1.3,4.1,4.1,0,0,1-1.8.5,2.9,2.9,0,0,1-2.3-.9v.8h-1.9v-9.8h2v3.4a3.1,3.1,0,0,1,2.2-.8A3.9,3.9,0,0,1,411.8,256.7Zm-.9,4.7a2.5,2.5,0,0,0,.5-1.5,2.2,2.2,0,0,0-.5-1.4,1.9,1.9,0,0,0-2.6,0,2.2,2.2,0,0,0-.5,1.4,2.5,2.5,0,0,0,.5,1.5,1.9,1.9,0,0,0,2.6,0Z" transform="translate(-63.8 -195.2)"/><path class="cls-2" d="M417.6,255.1a1.2,1.2,0,0,1-.4-.8,1.5,1.5,0,0,1,.4-.9,1.5,1.5,0,0,1,1.8,0,.9.9,0,0,1,.4.8,1.1,1.1,0,0,1-.4.9,1.5,1.5,0,0,1-1.8,0Zm-.1,1.3h2v7.1h-2Z" transform="translate(-63.8 -195.2)"/><path class="cls-2" d="M424.1,253.7h2v9.8h-2Z" transform="translate(-63.8 -195.2)"/><path class="cls-2" d="M430.8,255.1a.9.9,0,0,1-.4-.8,1.1,1.1,0,0,1,.4-.9,1.5,1.5,0,0,1,1.8,0,.9.9,0,0,1,.4.8,1.1,1.1,0,0,1-.4.9,1.5,1.5,0,0,1-1.8,0Zm-.1,1.3h2v7.1h-2Z" transform="translate(-63.8 -195.2)"/><path class="cls-2" d="M441.8,263.1l-.7.4h-.9a2.4,2.4,0,0,1-2.7-2.6v-2.9h-1.1v-1.6h1.1v-1.7h2.1v1.7h1.7v1.6h-1.7V261a1.4,1.4,0,0,0,.2.7.8.8,0,0,0,.7.2,1.1,1.1,0,0,0,.8-.2Z" transform="translate(-63.8 -195.2)"/><path class="cls-2" d="M452.5,256.4l-3.2,7.5a3.2,3.2,0,0,1-1.2,1.7,2.5,2.5,0,0,1-1.7.5h-1.1l-.9-.5.8-1.5a1,1,0,0,0,.5.4h.6l.7-.2.5-.7h0l-3.1-7.1h2.2l2,4.8,2-4.8Z" transform="translate(-63.8 -195.2)"/><circle class="cls-3" cx="26.2" cy="63.6" r="6.2"/><circle class="cls-3" cx="51.2" cy="63.5" r="6.2"/><path class="cls-4" d="M102.8,195.2h3.8v3.7a2,2,0,0,1-1.9,2h-3.8v-3.8a1.9,1.9,0,0,1,1.9-1.9Z" transform="translate(-63.8 -195.2)"/><path class="cls-4" d="M110.3,200.9h7.4v7.2a3.8,3.8,0,0,1-3.7,3.7h-7.4v-7.2a3.7,3.7,0,0,1,3.7-3.7Z" transform="translate(-63.8 -195.2)"/><path class="cls-5" d="M95.3,205h7.4v7.2a3.8,3.8,0,0,1-3.8,3.7H91.5v-7.2a3.7,3.7,0,0,1,3.8-3.7Z" transform="translate(-63.8 -195.2)"/><path class="cls-3" d="M110.7,247c-19.7,6.7-41.1-3.7-46.4-19.4-.2-.6-.3-1.3-.5-1.8,6.1,14.5,25.6,21.2,44.6,14.8s30.4-23.2,26.7-38.5l.6,1.7C140.9,219.5,130.4,240.5,110.7,247Z" transform="translate(-63.8 -195.2)"/><path class="cls-2" d="M69,215.9h4.9l8.6,22.9a36.3,36.3,0,0,0,11.1,1.7,42.2,42.2,0,0,0,13.9-2.3,40.9,40.9,0,0,0,19.9-13.8,4.1,4.1,0,0,0-4-4.7H83.3L80,210.8a3.7,3.7,0,0,0-3.5-2.4H69a3.8,3.8,0,1,0,0,7.5Z" transform="translate(-63.8 -195.2)"/></svg>